Coordinates
version=1
nRows=24
nColumns=26
inDegrees=yes

Units are S.I. units (second, meters, Newtons, ...)
If the header above contains a line with 'inDegrees', this indicates whether rotational values are in degrees (yes) or radians (no).

endheader
time	pelvis_tilt	pelvis_list	pelvis_rotation	pelvis_tx	pelvis_ty	pelvis_tz	hip_flexion_r	hip_adduction_r	hip_rotation_r	knee_angle_r	knee_angle_r_beta	hip_flexion_l	hip_adduction_l	hip_rotation_l	knee_angle_l	knee_angle_l_beta	lumbar_extension	lumbar_bending	lumbar_rotation	ankle_angle_r	subtalar_angle_r	mtp_angle_r	ankle_angle_l	subtalar_angle_l	mtp_angle_l
      0.96000000	     -2.85132889	      1.78849680	      6.60755859	     -0.22718771	      0.87355988	      0.24301837	     21.74582431	    -11.32575953	    -12.80281531	     70.37676982	      1.22830635	     17.33121510	      9.59231168	     17.07931823	     22.53370141	      0.39328728	     -4.60598304	     -1.81593501	     -5.02586720	     -6.51342682	    -18.98783585	      0.00000000	      7.45941054	    -10.76184637	      0.00000000
      0.97000000	     -2.88086919	      1.27242395	      7.87367238	     -0.21756938	      0.87493277	      0.24171322	     23.02213481	    -11.21064540	    -13.92072688	     69.93684902	      1.22062828	     16.37842346	      9.15151059	     17.96534877	     22.08318928	      0.38542436	     -4.62823860	     -1.38113918	     -6.14209055	     -5.84468360	    -18.92543219	      0.00000000	      8.29803629	     -9.90655974	      0.00000000
      0.98000000	     -2.98570724	      0.85880241	      8.94921146	     -0.20797877	      0.87603168	      0.24076726	     24.42342468	    -11.10989135	    -14.69276889	     69.28651256	      1.20927777	     15.46854182	      8.72502910	     18.70420791	     21.47942239	      0.37488664	     -4.56493286	     -1.11232060	     -6.89207790	     -5.24894225	    -18.81793635	      0.00000000	      8.92862801	     -9.18458380	      0.00000000
      0.99000000	     -3.12697635	      0.46620748	     10.07457603	     -0.19822341	      0.87688504	      0.23978494	     25.74526562	    -11.11545607	    -15.57588080	     68.33893012	      1.19273934	     14.60943441	      8.29800865	     19.36319911	     20.86923509	      0.36423686	     -4.39528691	     -0.88754617	     -7.60660654	     -4.65802088	    -18.65954730	      0.00000000	      9.62082861	     -8.55484844	      0.00000000
      1.00000000	     -2.93752864	     -0.22215102	     11.82392639	     -0.18873996	      0.87787973	      0.23823432	     26.38588173	    -11.05888583	    -17.27831298	     66.97343483	      1.16890695	     13.66401341	      7.64426371	     20.78601243	     20.75187830	      0.36218860	     -4.62901200	     -0.24815253	     -9.33655321	     -3.78781858	    -18.35172183	      0.00000000	     10.77067812	     -7.29518865	      0.00000000
      1.01000000	     -2.91581835	     -0.64700746	     13.10574283	     -0.17907324	      0.87844075	      0.23722360	     27.33088540	    -11.09860152	    -18.27045682	     65.52254801	      1.14358420	     12.77163001	      7.11596478	     21.64572616	     20.33157140	      0.35485286	     -4.65866851	      0.02897603	    -10.27381769	     -3.04842198	    -17.97515410	      0.00000000	     11.64189152	     -6.40497902	      0.00000000
      1.02000000	     -2.87604574	     -0.97361046	     14.32984377	     -0.16942151	      0.87878815	      0.23628741	     28.19078514	    -11.22647614	    -19.11538348	     63.87147517	      1.11476754	     11.86339525	      6.64568276	     22.47069204	     19.90408508	      0.34739182	     -4.73588287	      0.19987139	    -11.14801396	     -2.28508876	    -17.49318892	      0.00000000	     12.48273842	     -5.55529652	      0.00000000
      1.03000000	     -2.86686898	     -1.20058458	     15.43853585	     -0.15963739	      0.87888484	      0.23546545	     29.02668437	    -11.41213614	    -19.73567654	     62.05380638	      1.08304323	     10.96281679	      6.23810528	     23.21980152	     19.45907078	      0.33962485	     -4.78307145	      0.24008594	    -11.87123235	     -1.56967282	    -16.98150393	      0.00000000	     13.25455686	     -4.83526339	      0.00000000
      1.04000000	     -2.74847100	     -1.32397354	     16.54622674	     -0.14982907	      0.87890415	      0.23464814	     29.61045229	    -11.67824591	    -20.29782723	     60.00568117	      1.04729671	      9.95298323	      5.87837074	     23.91856644	     19.05428988	      0.33256010	     -5.01511279	      0.21102928	    -12.62591142	     -0.84568609	    -16.46612469	      0.00000000	     14.08288392	     -4.06291944	      0.00000000
      1.05000000	     -2.83405637	     -1.32216599	     17.45033763	     -0.14000060	      0.87845029	      0.23405948	     30.41537940	    -12.00456221	    -20.45093724	     57.85898492	      1.00982979	      9.10292296	      5.65979846	     24.48447645	     18.57299809	      0.32415997	     -5.04779063	     -0.01875535	    -13.09600363	     -0.26400501	    -16.08383695	      0.00000000	     14.76813873	     -3.48928662	      0.00000000
      1.06000000	     -2.65486901	     -1.28317588	     18.43389331	     -0.13006315	      0.87821398	      0.23332283	     30.69050957	    -12.32440980	    -20.74478356	     55.35165920	      0.96606870	      8.01737452	      5.38452354	     25.05494834	     18.23246020	      0.31821646	     -5.41326918	     -0.16724917	    -13.76158029	      0.34431545	    -15.71278255	      0.00000000	     15.58725733	     -2.78836493	      0.00000000
      1.07000000	     -2.61131639	     -1.10648502	     19.22948749	     -0.12011269	      0.87762465	      0.23279242	     31.07790161	    -12.69549453	    -20.66206798	     52.72407667	      0.92020873	      7.03592621	      5.25218271	     25.40558068	     17.87435942	      0.31196642	     -5.67624904	     -0.50516743	    -14.17289142	      0.85673762	    -15.46883636	      0.00000000	     16.33554166	     -2.15025122	      0.00000000
      1.08000000	     -2.68820551	     -0.87677657	     19.94311029	     -0.11014231	      0.87674609	      0.23234116	     31.49050572	    -13.08128718	    -20.37442122	     49.89590530	      0.87084783	      6.16455950	      5.19673926	     25.70630530	     17.53050585	      0.30596505	     -5.82610805	     -0.92650432	    -14.52359531	      1.34230919	    -15.27249895	      0.00000000	     17.04832757	     -1.56014886	      0.00000000
      1.09000000	     -2.80837542	     -0.60128790	     20.58433667	     -0.10020998	      0.87569302	      0.23195505	     31.84030634	    -13.46422398	    -19.92537575	     46.85396427	      0.81775594	      5.35950688	      5.19782661	     25.90382404	     17.24844020	      0.30104207	     -5.97410123	     -1.39550058	    -14.80250845	      1.79733483	    -15.07958453	      0.00000000	     17.74755633	     -0.98170783	      0.00000000
      1.10000000	     -3.18066790	     -0.23619941	     21.11604619	     -0.09046075	      0.87419122	      0.23183855	     32.42192444	    -13.93877918	    -19.17602652	     43.73699141	      0.76335450	      4.83958629	      5.40040179	     26.13804022	     17.06868136	      0.29790469	     -5.94629727	     -2.12095207	    -14.99591598	      2.35180973	    -14.72179285	      0.00000000	     18.25704094	     -0.61013395	      0.00000000
      1.11000000	     -3.35210964	      0.05125852	     21.63268529	     -0.08045618	      0.87289740	      0.23133564	     32.54633947	    -14.26347853	    -18.55307927	     40.21320381	      0.70185281	      4.10990919	      5.41660777	     26.01480733	     16.86541241	      0.29435698	     -6.03209756	     -2.49187100	    -15.15270511	      2.62512699	    -14.51726349	      0.00000000	     19.07755521	      0.12191058	      0.00000000
      1.12000000	     -3.95906007	      0.61829488	     22.11445269	     -0.07072403	      0.87088506	      0.23080816	     33.15864369	    -15.14934095	    -17.92065699	     36.98136693	      0.64544661	      3.76646426	      5.97955491	     25.98016767	     16.75243768	      0.29238520	     -5.79256488	     -3.38062148	    -15.16097046	      3.14162245	    -13.85281998	      0.00000000	     19.69587790	      0.08412866	      0.00000000
      1.13000000	     -4.36359021	      0.67011917	     22.50515013	     -0.06091121	      0.86918242	      0.23070100	     33.34219918	    -15.12425024	    -16.89043654	     33.02526259	      0.57639957	      3.46086856	      5.86594882	     26.08786380	     16.72101708	      0.29183680	     -5.63155135	     -3.59577187	    -15.38237090	      3.43498459	    -13.20996924	      0.00000000	     20.17873763	      0.82006245	      0.00000000
      1.14000000	     -4.92437212	      0.96844653	     22.85818957	     -0.05110098	      0.86716022	      0.23047271	     33.66808378	    -15.53251035	    -16.02522413	     29.34645813	      0.51219232	      3.25435505	      6.09695201	     25.87793550	     16.76444179	      0.29259471	     -5.39175385	     -4.12092400	    -15.45782512	      3.72520193	    -12.30368713	      0.00000000	     20.79661524	      1.31616698	      0.00000000
      1.15000000	     -5.60923791	      1.29670910	     23.20899071	     -0.04131690	      0.86492470	      0.23028770	     34.10951718	    -16.06444233	    -15.14182585	     25.89380419	      0.45193214	      3.17363568	      6.45389506	     25.86052143	     16.84620069	      0.29402167	     -5.04697190	     -4.72447660	    -15.51869250	      4.13426363	    -10.90733993	      0.00000000	     21.16389626	      1.44266372	      0.00000000
      1.16000000	     -6.29639805	      1.69404801	     23.51523723	     -0.03120695	      0.86259204	      0.23023275	     34.57070491	    -16.70638041	    -14.60336687	     22.76962145	      0.39740486	      3.01237490	      6.86357612	     25.74569815	     16.86334523	      0.29432090	     -4.67482487	     -5.44679521	    -15.50405438	      4.48487889	     -9.60093330	      0.00000000	     21.73871249	      1.39124422	      0.00000000
      1.17000000	     -6.60529738	      1.57304898	     23.92925231	     -0.02093595	      0.86073159	      0.23015244	     34.46663835	    -16.72154269	    -14.19626685	     19.53619317	      0.34097089	      2.84933934	      6.57154239	     25.64058245	     17.24249671	      0.30093834	     -4.50303619	     -5.32999352	    -15.76161742	      4.63903864	     -7.73699362	      0.00000000	     22.32416883	      2.09529399	      0.00000000
      1.18000000	     -7.13933979	      1.79434137	     24.22324657	     -0.01044027	      0.85851167	      0.23039781	     34.83883571	    -17.13196265	    -13.55992390	     17.21010562	      0.30037301	      2.64816822	      6.72287708	     25.61189363	     17.38010118	      0.30333999	     -4.21269355	     -5.78370815	    -15.77472922	      4.86099327	     -6.34832776	      0.00000000	     22.78093411	      2.05938916	      0.00000000
      1.19000000	     -7.16543831	      1.60592443	     24.67829043	      0.00049693	      0.85693268	      0.23056161	     34.56298563	    -17.08781659	    -13.53607903	     15.15084132	      0.26443207	      2.23394752	      6.20347995	     25.58888869	     17.83110394	      0.31121147	     -4.25061300	     -5.50735525	    -16.13473522	      5.13346829	     -4.43243740	      0.00000000	     23.37441322	      2.71715136	      0.00000000
